<?xml version="1.0" encoding="UTF-8" standalone="no"?><!DOCTYPE svg PUBLIC "-//W3C//DTD SVG 1.1//EN" "http://www.w3.org/Graphics/SVG/1.1/DTD/svg11.dtd"><svg width="100%" height="100%" viewBox="0 0 1373 1675" version="1.1" xmlns="http://www.w3.org/2000/svg" xmlns:xlink="http://www.w3.org/1999/xlink" xml:space="preserve" xmlns:serif="http://www.serif.com/" style="fill-rule:evenodd;clip-rule:evenodd;stroke-linecap:round;stroke-linejoin:round;stroke-miterlimit:1.5;"><path d="M89.628,647.096c6.499,-4.199 13.034,-5.65 21.959,-7.009c8.925,-1.358 19.951,-1.237 31.591,-1.142c11.639,0.096 25.674,1.185 38.247,1.714c12.572,0.53 23.34,0.915 37.188,1.463c13.847,0.549 30.618,1.174 45.895,1.828c15.276,0.654 31.992,1.394 45.764,2.097c13.773,0.703 24.451,1.271 36.87,2.122c12.418,0.85 25.858,1.898 37.644,2.979c11.785,1.082 22.681,2.354 33.069,3.509c10.389,1.155 18.977,2.122 29.262,3.421c10.286,1.299 21.699,2.938 32.451,4.372c10.753,1.435 21.852,2.897 32.064,4.236c10.212,1.339 18.398,2.363 29.206,3.8c10.808,1.436 22.612,3.072 35.639,4.819c13.028,1.748 29.232,3.749 42.527,5.668c13.296,1.919 25.229,2.719 37.246,5.846c12.018,3.127 25.906,6.915 34.858,12.917c8.953,6.003 15.296,15.001 18.859,23.098c3.562,8.096 3.323,15.859 2.516,25.482c-0.807,9.624 -4,21.922 -7.359,32.257c-3.359,10.336 -8.516,20.535 -12.797,29.757c-4.28,9.222 -8.338,16.366 -12.887,25.576c-4.548,9.211 -9.322,18.987 -14.405,29.687c-5.083,10.7 -10.907,23.376 -16.092,34.513c-5.186,11.136 -9.722,20.647 -15.02,32.307c-5.298,11.659 -11.11,25.136 -16.767,37.651c-5.657,12.516 -11.809,26.36 -17.175,37.442c-5.365,11.081 -9.833,19.181 -15.019,29.05c-5.185,9.868 -11.087,20.445 -16.094,30.159c-5.007,9.713 -9.903,19.035 -13.949,28.122c-4.047,9.087 -6.71,16.151 -10.33,26.399c-3.62,10.248 -7.419,23.229 -11.391,35.091c-3.971,11.862 -8.265,25 -12.435,36.08c-4.17,11.08 -7.323,19.898 -12.583,30.402c-5.26,10.504 -11.564,23.165 -18.978,32.623c-7.414,9.459 -16.918,18.219 -25.507,24.127c-8.59,5.909 -16.281,9.725 -26.03,11.324c-9.748,1.598 -22.138,1.531 -32.462,-1.732c-10.325,-3.262 -20.764,-11.366 -29.485,-17.843c-8.721,-6.476 -14.613,-13.355 -22.841,-21.014c-8.229,-7.659 -17.832,-17.198 -26.528,-24.938c-8.695,-7.74 -18,-15.086 -25.645,-21.5c-7.646,-6.414 -13.237,-9.95 -20.227,-16.986c-6.991,-7.036 -14.586,-15.837 -21.717,-25.229c-7.13,-9.393 -14.154,-20.535 -21.068,-31.123c-6.914,-10.589 -12.899,-20.468 -20.414,-32.41c-7.515,-11.941 -16.916,-27.016 -24.675,-39.237c-7.758,-12.221 -15.638,-23.902 -21.877,-34.087c-6.238,-10.185 -10.459,-17.562 -15.556,-27.023c-5.096,-9.462 -10.18,-19.316 -15.024,-29.747c-4.844,-10.432 -9.665,-22.137 -14.04,-32.841c-4.374,-10.704 -7.844,-19.871 -12.208,-31.383c-4.364,-11.513 -9.571,-25.042 -13.976,-37.691c-4.405,-12.65 -8.996,-26.845 -12.455,-38.204c-3.459,-11.358 -5.47,-18.806 -8.297,-29.947c-2.827,-11.141 -6.269,-24.798 -8.662,-36.901c-2.394,-12.103 -4.719,-24.736 -5.7,-35.718c-0.981,-10.982 -1.483,-20.166 -0.186,-30.174c1.298,-10.008 3.804,-21.863 7.971,-29.873c4.168,-8.01 10.536,-13.987 17.035,-18.186" style="fill:#216f3d;stroke:#000;stroke-width:1px;"/><path d="M625.285,145.435c1.527,-5.438 5.077,-10.099 10.661,-14.671c5.585,-4.571 14.307,-9.199 22.848,-12.756c8.541,-3.557 19.084,-6.545 28.397,-8.584c9.314,-2.039 17.861,-3.303 27.484,-3.652c9.623,-0.35 20.166,0.221 30.252,1.554c10.087,1.332 21.105,4.062 30.265,6.441c9.16,2.378 16.507,4.857 24.695,7.83c8.187,2.972 15.969,6.442 24.43,10.007c8.461,3.566 17.754,7.6 26.335,11.386c8.582,3.786 15.864,7.054 25.155,11.332c9.292,4.279 20.394,9.245 30.596,14.339c10.202,5.094 21.717,10.894 30.617,16.227c8.899,5.333 15.461,10.072 22.781,15.769c7.319,5.698 14.579,11.46 21.136,18.417c6.556,6.958 12.996,15.641 18.2,23.329c5.204,7.688 8.966,14.252 13.023,22.799c4.057,8.547 8.216,18.139 11.318,28.485c3.101,10.347 5.756,23.84 7.29,33.595c1.535,9.755 1.862,15.859 1.917,24.933c0.054,9.073 -0.499,19.809 -1.588,29.507c-1.089,9.698 -3.104,19.783 -4.945,28.68c-1.842,8.898 -4.043,15.611 -6.103,24.704c-2.06,9.094 -4.839,19.625 -6.258,29.858c-1.418,10.233 -2.403,21.92 -2.253,31.542c0.15,9.622 1.24,17.114 3.155,26.191c1.915,9.077 5.233,18.461 8.337,28.273c3.104,9.813 7.224,21.281 10.288,30.603c3.063,9.323 5.546,15.981 8.091,25.333c2.546,9.351 5.392,20.424 7.182,30.778c1.79,10.354 3.371,22.09 3.558,31.343c0.187,9.253 -0.073,16.475 -2.436,24.173c-2.363,7.697 -6.006,15.658 -11.741,22.012c-5.735,6.354 -14.794,12.038 -22.668,16.112c-7.874,4.074 -15.65,6.829 -24.576,8.33c-8.927,1.5 -19.6,1.916 -28.984,0.674c-9.383,-1.241 -19.432,-4.659 -27.318,-8.123c-7.886,-3.464 -12.952,-7.318 -19.999,-12.66c-7.047,-5.343 -14.81,-12.47 -22.283,-19.395c-7.474,-6.925 -16.19,-15.04 -22.559,-22.155c-6.368,-7.115 -10.906,-12.622 -15.653,-20.533c-4.748,-7.91 -9.586,-17.759 -12.831,-26.933c-3.246,-9.174 -5.194,-19.242 -6.641,-28.111c-1.447,-8.868 -1.147,-16.077 -2.04,-25.098c-0.892,-9.022 -1.677,-18.898 -3.313,-29.032c-1.636,-10.134 -4.127,-21.936 -6.502,-31.77c-2.376,-9.834 -4.772,-17.721 -7.751,-27.235c-2.979,-9.513 -6.627,-19.956 -10.125,-29.847c-3.498,-9.892 -7.577,-20.679 -10.863,-29.501c-3.286,-8.822 -5.587,-14.833 -8.852,-23.432c-3.265,-8.598 -7.023,-18.758 -10.738,-28.159c-3.715,-9.401 -7.899,-19.909 -11.55,-28.247c-3.651,-8.338 -6.261,-13.877 -10.358,-21.781c-4.096,-7.904 -9.029,-17.088 -14.22,-25.642c-5.191,-8.553 -11.221,-17.572 -16.925,-25.679c-5.704,-8.108 -10.568,-14.545 -17.299,-22.967c-6.73,-8.421 -15.505,-19.017 -23.085,-27.563c-7.58,-8.547 -15.609,-16.512 -22.395,-23.714c-6.786,-7.202 -13.044,-12.938 -18.321,-19.498c-5.277,-6.56 -10.869,-13.56 -13.341,-19.863c-2.473,-6.303 -3.025,-12.518 -1.497,-17.955" style="fill:#6c7770;stroke:#000;stroke-width:1px;"/><path d="M749.577,901.058c5.696,-9.022 10.039,-14.701 18.025,-21.91c7.985,-7.209 17.806,-14.653 29.888,-21.344c12.081,-6.691 28.618,-13.866 42.601,-18.799c13.983,-4.934 26.458,-7.548 41.297,-10.802c14.838,-3.255 32.837,-6.104 47.734,-8.726c14.898,-2.621 29.451,-4.799 41.648,-7.003c12.197,-2.204 20.313,-3.949 31.532,-6.22c11.219,-2.272 23.308,-5.386 35.782,-7.408c12.474,-2.022 26.178,-4.336 39.064,-4.724c12.886,-0.389 24.565,-0.386 38.251,2.391c13.686,2.778 30.516,7.346 43.867,14.273c13.351,6.926 26.191,17.477 36.237,27.288c10.047,9.81 16.425,19.851 24.041,31.573c7.617,11.722 15.107,26.251 21.66,38.759c6.554,12.508 12.584,25.348 17.659,36.288c5.074,10.94 8.877,18.727 12.791,29.35c3.913,10.624 8.025,22.03 10.689,34.392c2.664,12.363 3.967,26.581 5.294,39.781c1.327,13.2 1.645,24.419 2.668,39.417c1.023,14.999 2.016,33.86 3.471,50.575c1.456,16.716 3.387,34.896 5.261,49.719c1.874,14.822 3.496,25.138 5.982,39.215c2.486,14.076 5.855,30.051 8.936,45.243c3.08,15.193 6.668,31.044 9.549,45.911c2.88,14.867 5.519,27.793 7.732,43.291c2.213,15.499 5.131,33.719 5.548,49.7c0.416,15.981 -1.044,32.573 -3.048,46.186c-2.004,13.613 -4.204,23.187 -8.975,35.491c-4.771,12.304 -12.246,25.802 -19.653,38.333c-7.407,12.53 -16.156,26.422 -24.791,36.851c-8.634,10.429 -15.261,17.814 -27.015,25.722c-11.755,7.909 -27.966,16.408 -43.512,21.729c-15.547,5.32 -34.247,8.445 -49.767,10.195c-15.52,1.749 -29.288,1.19 -43.353,0.303c-14.066,-0.886 -29.928,-3.371 -41.039,-5.621c-11.112,-2.25 -18.101,-5.296 -25.632,-7.881c-7.531,-2.584 -10.649,-4.354 -19.553,-7.624c-8.904,-3.271 -21.338,-7.897 -33.871,-11.998c-12.534,-4.101 -27.089,-8.408 -41.332,-12.608c-14.243,-4.2 -28.062,-7.846 -44.127,-12.591c-16.065,-4.745 -36.408,-10.697 -52.265,-15.88c-15.856,-5.183 -29.138,-9.805 -42.874,-15.219c-13.735,-5.415 -26.106,-10.772 -39.541,-17.269c-13.435,-6.496 -27.951,-14.441 -41.067,-21.71c-13.115,-7.269 -26.242,-14.458 -37.626,-21.902c-11.383,-7.445 -21.07,-13.696 -30.674,-22.766c-9.603,-9.069 -19.151,-18.801 -26.945,-31.653c-7.795,-12.852 -14.959,-31.193 -19.822,-45.459c-4.862,-14.266 -7.823,-26.283 -9.354,-40.139c-1.53,-13.856 -1.843,-29.027 0.172,-43c2.015,-13.972 7.568,-29.365 11.918,-40.833c4.351,-11.468 8.825,-16.819 14.184,-27.974c5.359,-11.156 12.419,-24.989 17.97,-38.96c5.551,-13.97 11.217,-31.314 15.336,-44.862c4.119,-13.548 5.867,-22.427 9.378,-36.425c3.511,-13.999 7.42,-31.715 11.686,-47.566c4.265,-15.852 9.371,-33.385 13.906,-47.542c4.535,-14.156 8.648,-24.841 13.303,-37.396c4.654,-12.556 9.495,-26.243 14.625,-37.937c5.129,-11.693 10.455,-23.202 16.151,-32.225" style="fill:#216f3d;stroke:#000;stroke-width:2.87px;"/><path d="M202.322,236.959c4.916,-5.939 6.741,-11.647 6.978,-21.307c0.237,-9.66 -3.806,-24.017 -5.555,-36.653c-1.75,-12.636 -4.857,-27.859 -4.941,-39.162c-0.084,-11.302 1.378,-19.335 4.436,-28.654c3.058,-9.319 7.954,-19.359 13.913,-27.258c5.959,-7.899 14.272,-14.907 21.839,-20.137c7.567,-5.23 14.668,-8.326 23.563,-11.241c8.895,-2.916 19.747,-5.276 29.807,-6.253c10.06,-0.978 21.156,-0.489 30.552,0.389c9.396,0.878 16.582,2.39 25.825,4.877c9.244,2.488 19.631,5.993 29.637,10.048c10.005,4.056 20.918,9.332 30.399,14.287c9.48,4.955 16.884,9.278 26.483,15.441c9.6,6.162 20.755,13.761 31.115,21.532c10.36,7.772 21.485,16.887 31.044,25.098c9.559,8.212 16.915,14.961 26.311,24.171c9.396,9.211 20.232,20.288 30.066,31.094c9.834,10.805 20.317,23.211 28.939,33.738c8.622,10.527 15.038,18.788 22.794,29.423c7.756,10.634 16.374,22.949 23.742,34.385c7.368,11.436 14.538,23.623 20.466,34.231c5.928,10.609 9.953,18.56 15.102,29.42c5.15,10.86 10.834,23.633 15.794,35.741c4.96,12.108 9.876,25.392 13.968,36.909c4.091,11.517 7.018,20.532 10.579,32.193c3.562,11.66 7.459,25.219 10.789,37.768c3.33,12.549 6.549,26.005 9.192,37.525c2.643,11.521 5.024,20.761 6.667,31.597c1.643,10.835 4.109,23.761 3.192,33.419c-0.916,9.657 -4.382,18.13 -8.69,24.524c-4.309,6.395 -9.074,10.224 -17.161,13.843c-8.087,3.618 -19.897,5.979 -31.361,7.869c-11.463,1.891 -25.682,2.561 -37.419,3.474c-11.738,0.913 -20.973,1.502 -33.007,2.003c-12.034,0.502 -26.08,0.945 -39.199,1.006c-13.119,0.061 -27.299,-0.196 -39.515,-0.641c-12.217,-0.444 -21.667,-0.974 -33.783,-2.026c-12.116,-1.052 -26.086,-2.473 -38.913,-4.284c-12.827,-1.812 -26.187,-4.162 -38.049,-6.586c-11.863,-2.424 -20.987,-4.605 -33.125,-7.957c-12.138,-3.353 -26.324,-7.61 -39.703,-12.158c-13.378,-4.547 -27.969,-10.092 -40.569,-15.128c-12.601,-5.036 -22.708,-9.347 -35.035,-15.09c-12.327,-5.742 -26.409,-12.644 -38.927,-19.363c-12.517,-6.719 -25.385,-14.285 -36.178,-20.95c-10.793,-6.666 -18.779,-11.989 -28.58,-19.041c-9.801,-7.052 -20.761,-15.362 -30.227,-23.271c-9.465,-7.909 -18.869,-16.606 -26.566,-24.183c-7.697,-7.576 -13.192,-13.519 -19.615,-21.276c-6.424,-7.757 -13.338,-16.563 -18.926,-25.265c-5.589,-8.702 -10.773,-18.318 -14.605,-26.948c-3.832,-8.63 -6.355,-15.656 -8.385,-24.831c-2.03,-9.176 -3.808,-20.153 -3.795,-30.221c0.014,-10.068 1.49,-21.28 3.876,-30.189c2.386,-8.908 5.256,-15.685 10.44,-23.26c5.185,-7.575 12.257,-15.942 20.665,-22.191c8.408,-6.249 19.358,-11.688 29.785,-15.306c10.427,-3.617 20.883,-4.59 32.775,-6.399c11.892,-1.808 28.395,-1.322 38.578,-4.451c10.183,-3.129 17.602,-8.386 22.518,-14.325" style="fill:#ef2433;stroke:#000;stroke-width:1px;stroke-linecap:butt;stroke-miterlimit:2;"/></svg>